<svg width="40" height="40" viewBox="0 0 40 40" fill="none" xmlns="http://www.w3.org/2000/svg">
<rect x="0.5" y="0.5" width="39" height="39" rx="19.5" fill="url(#paint0_linear_207_822)" stroke="white"/>
<path d="M14.8008 13.7016L15.6469 13.7227V12.4323L14.8219 12.4112L14.8008 13.7016Z" fill="white"/>
<path d="M15.1011 10.1433C14.9022 10.4734 14.8008 10.8457 14.8008 11.2307V11.586L15.6469 11.6071V11.2307C15.6469 11.0023 15.7104 10.7738 15.8287 10.5792L15.8372 10.5623L15.1137 10.1264L15.1011 10.1433ZM15.8415 9.40707L15.8246 9.41574L16.2561 10.1475L16.273 10.1351C16.4718 10.0206 16.6877 9.96151 16.9162 9.96151H17.2841L17.3054 9.13643L16.9162 9.11536C16.5395 9.11536 16.1673 9.21698 15.8415 9.40707Z" fill="white"/>
<path d="M20.2246 9.94036L21.5361 9.96151V9.13651L20.2458 9.11536L20.2246 9.94036Z" fill="white"/>
<path d="M18.1094 9.94036L19.4209 9.96151V9.13651L18.1305 9.11536L18.1094 9.94036Z" fill="white"/>
<path d="M29.469 19.2143V19.8024C29.304 19.7305 29.1305 19.6882 28.9444 19.6882H28.864V18.8208L28.4494 18.8124C27.4509 18.7955 24.6586 18.5882 23.7109 17.8605L23.3598 17.5939L23.1017 17.9578C23.089 17.9789 22.7252 18.4782 21.8579 18.6178V18.4232C21.8579 17.8478 21.4729 17.3612 20.9482 17.2089C21.6167 16.1258 22.814 15.4066 24.1805 15.4066H25.6613C27.764 15.4066 29.469 17.1116 29.469 19.2143ZM29.7905 20.9532C29.7905 21.1858 29.6975 21.3974 29.5452 21.5497C29.3929 21.7062 29.1813 21.7993 28.9444 21.7993H28.7879C28.8386 21.5539 28.864 21.2958 28.864 21.0378V20.1112H28.9444C29.1432 20.1112 29.3252 20.1789 29.469 20.2889C29.6636 20.4455 29.7905 20.6824 29.7905 20.9532ZM24.9209 24.9808C24.3902 24.9808 23.8844 24.874 23.4218 24.6831C23.5251 25.422 24.1532 25.9927 24.9206 25.9927C25.6894 25.9927 26.3183 25.4198 26.4198 24.6788C25.949 24.873 25.4419 24.9808 24.9209 24.9808Z" fill="white"/>
<path d="M28.4401 19.2354V21.0377C28.4401 21.7273 28.2412 22.3746 27.8985 22.9161H24.9201V23.3392H27.5812C26.9339 24.0881 25.982 24.5577 24.9201 24.5577C23.6085 24.5577 22.4662 23.8427 21.857 22.7765V19.0408C22.9866 18.8885 23.452 18.1946 23.452 18.1946C24.717 19.1677 28.4401 19.2354 28.4401 19.2354ZM30.9997 27.6546V29H28.2497V27.3077H27.8266V29H22.0135V27.3077H21.5905V29H18.8405V27.6546C18.8405 27.2865 18.9039 26.9354 19.0266 26.6096H20.5878C21.2859 26.6096 21.857 26.0384 21.857 25.3404V24.6127H22.9824L23.0035 24.7396C23.1347 25.6958 23.9597 26.415 24.9201 26.415C25.8805 26.415 26.7055 25.6958 26.8366 24.7354L26.8535 24.6127H27.9578C29.6374 24.6127 30.9997 25.975 30.9997 27.6546ZM29.5443 22.0742V22.2815C29.5443 22.8654 29.0705 23.3392 28.4866 23.3392H27.5812C27.6955 23.2081 27.8012 23.0642 27.8985 22.9161H28.4866C28.842 22.9161 29.1212 22.6369 29.1212 22.2815V22.2096C29.2735 22.1885 29.4132 22.1419 29.5443 22.0742ZM14.3708 27.3077H16.0631C16.1509 27.3077 16.2353 27.3206 16.3196 27.3336L15.9343 24.4519H14.4996L14.1143 27.3336C14.1985 27.3207 14.283 27.3077 14.3708 27.3077ZM17.3323 29H13.1016C13.1016 28.299 13.6698 27.7308 14.3708 27.7308H16.0631C16.7641 27.7308 17.3323 28.299 17.3323 29ZM24.9197 7C23.5178 7 22.3813 8.13651 22.3813 9.53846C22.3813 10.9404 23.5178 12.0769 24.9197 12.0769C26.3217 12.0769 27.4582 10.9404 27.4582 9.53846C27.4582 8.13651 26.3217 7 24.9197 7ZM25.6691 10.5871L24.7081 9.62604V8.03125H25.1312V9.45088L25.9682 10.2879L25.6691 10.5871Z" fill="white"/>
<path d="M20.5883 17.5769H19.448V18.6344C19.448 19.3343 18.8787 19.9037 18.1788 19.9037H18.0699V21.1968L15.8155 19.9037H12.2557C11.5558 19.9037 10.9865 19.3343 10.9865 18.6344V17.5769H9.84615C9.37882 17.5769 9 17.9557 9 18.4231V25.3392C9 25.8065 9.37882 26.1854 9.84615 26.1854H13.8414L14.1296 24.0291H16.3049L16.5931 26.1854H20.5883C21.0556 26.1854 21.4344 25.8065 21.4344 25.3392V18.4231C21.4345 17.9557 21.0556 17.5769 20.5883 17.5769Z" fill="white"/>
<path d="M18.1784 15.6731H12.2553C11.788 15.6731 11.4092 16.0519 11.4092 16.5192V18.6346C11.4092 19.102 11.788 19.4808 12.2553 19.4808H15.9278L17.6466 20.4666V19.4808H18.1784C18.6457 19.4808 19.0246 19.102 19.0246 18.6346V16.5192C19.0246 16.0519 18.6457 15.6731 18.1784 15.6731ZM13.9537 18H13.1075V17.1539H13.9537V18ZM15.646 18H14.7998V17.1539H15.646V18ZM17.3262 18H16.48V17.1539H17.3262V18Z" fill="white"/>
<defs>
<linearGradient id="paint0_linear_207_822" x1="20" y1="0" x2="20" y2="40" gradientUnits="userSpaceOnUse">
<stop stop-color="#00A9AB"/>
<stop offset="1" stop-color="#004343"/>
</linearGradient>
</defs>
</svg>
