<svg width="40" height="40" viewBox="0 0 40 40" fill="none" xmlns="http://www.w3.org/2000/svg">
<rect x="0.5" y="0.5" width="39" height="39" rx="19.5" fill="url(#paint0_linear_207_833)" stroke="white"/>
<path d="M16.9926 7.00935C12.8644 7.18414 10.1369 9.56496 8.75792 11.6289C6.1221 15.5735 6.49062 20.7663 9.59293 24.2846C9.76933 24.4615 9.77877 24.6513 9.71892 24.7583C9.6307 24.9084 9.3737 25.4194 8.19187 26.3144C7.5178 26.7812 7.85231 27.8386 8.67223 27.8331H15.7446C17.3445 30.4031 20.1516 31.9985 23.2029 31.9985C23.5538 32.0019 31.1692 31.9985 31.1692 31.9985C31.9813 31.9971 32.312 30.9538 31.6493 30.4847C31.6493 30.4847 30.6117 29.7794 30.1178 28.9237C30.0422 28.7906 30.0611 28.7149 30.1872 28.5509C31.7139 26.5575 32.3209 24.003 31.8459 21.5337C31.3687 19.0543 29.8454 16.9012 27.6739 15.6185C27.0697 12.1924 24.7725 9.18375 21.4053 7.78906C19.9721 7.19536 18.4674 6.94691 16.9926 7.00935ZM17.0588 8.67127C18.2963 8.62128 19.5585 8.83394 20.7649 9.33377C24.6263 10.9332 26.8168 15.0221 26.0016 19.1214C25.1861 23.2206 21.598 26.1663 17.4185 26.1663H10.7738C11.0195 25.8651 11.2233 25.5654 11.3584 25.1505C11.5317 24.6168 11.5884 23.9592 11.2293 23.6009C8.27408 20.6455 7.8183 16.027 10.1404 12.5518C12.2508 9.39364 15.6923 8.67127 17.0588 8.67127ZM27.8294 17.759C29.0522 18.8012 29.9005 20.2441 30.2092 21.8478C30.6007 23.882 30.0863 25.9842 28.8062 27.6117C28.3879 28.1539 28.2855 28.588 28.4805 29.3159C28.6159 29.7282 28.8131 30.0318 29.0585 30.3316H23.2016C21.0875 30.3316 19.1232 29.3874 17.7829 27.8168C22.5906 27.6487 26.6927 24.1974 27.6373 19.4486C27.7822 18.7142 27.8294 17.759 27.8294 17.759Z" fill="white"/>
<path d="M17.3018 21.5471C16.8414 21.5453 16.4667 21.9172 16.4651 22.3777C16.4633 22.8405 16.8389 23.2162 17.3018 23.2143C17.7622 23.2127 18.1341 22.8381 18.1323 22.3777C18.1308 21.9196 17.7598 21.5487 17.3018 21.5471ZM17.3011 11.9995C15.4149 11.9995 13.8682 13.5462 13.8682 15.4324C13.8664 15.8933 14.239 16.2681 14.6999 16.269C15.1628 16.2709 15.5384 15.8952 15.5366 15.4324C15.5366 14.447 16.3157 13.6663 17.3011 13.6663C18.2864 13.6663 19.0672 14.447 19.0672 15.4324C19.0672 16.4177 18.2864 17.1968 17.3011 17.1968C16.8383 17.195 16.4626 17.5707 16.4644 18.0335V19.5408C16.4626 20.0036 16.8383 20.3793 17.3011 20.3775C17.7615 20.3759 18.1347 20.0012 18.1329 19.5408V18.7497C19.6198 18.3737 20.734 17.0308 20.734 15.4324C20.734 13.5462 19.1872 11.9995 17.3011 11.9995Z" fill="white"/>
<defs>
<linearGradient id="paint0_linear_207_833" x1="20" y1="0" x2="20" y2="40" gradientUnits="userSpaceOnUse">
<stop stop-color="#00A9AB"/>
<stop offset="1" stop-color="#004343"/>
</linearGradient>
</defs>
</svg>
