<svg width="46" height="50" viewBox="0 0 46 50" fill="none" xmlns="http://www.w3.org/2000/svg">
<g id="Group">
<path id="Vector" d="M44.3548 43.5484H41.9355V5.64516C41.9338 4.1485 41.3385 2.71362 40.2802 1.65532C39.2219 0.597012 37.787 0.00170755 36.2903 0H4.03226C2.96323 0.00128053 1.93835 0.426518 1.18244 1.18244C0.426518 1.93835 0.00128053 2.96323 0 4.03226V10.4839C0 10.6978 0.0849652 10.9029 0.236204 11.0541C0.387443 11.2054 0.592567 11.2903 0.806452 11.2903H6.45161V45.9677C6.45289 47.0368 6.87813 48.0616 7.63405 48.8176C8.38997 49.5735 9.41484 49.9987 10.4839 50H41.129C42.1981 49.9987 43.2229 49.5735 43.9789 48.8176C44.7348 48.0616 45.16 47.0368 45.1613 45.9677V44.3548C45.1613 44.141 45.0763 43.9358 44.9251 43.7846C44.7738 43.6334 44.5687 43.5484 44.3548 43.5484ZM6.45161 9.67742H1.6129V4.03226C1.6129 3.39061 1.8678 2.77523 2.32152 2.32152C2.77523 1.8678 3.39061 1.6129 4.03226 1.6129C4.67391 1.6129 5.28928 1.8678 5.743 2.32152C6.19672 2.77523 6.45161 3.39061 6.45161 4.03226V9.67742ZM12.9032 44.3548V45.9677C12.9032 46.6094 12.6483 47.2248 12.1946 47.6785C11.7409 48.1322 11.1255 48.3871 10.4839 48.3871C9.84222 48.3871 9.22685 48.1322 8.77313 47.6785C8.31941 47.2248 8.06452 46.6094 8.06452 45.9677V4.03226C8.06155 3.15688 7.77081 2.30677 7.2371 1.6129H36.2903C37.3594 1.61418 38.3842 2.03942 39.1401 2.79534C39.8961 3.55126 40.3213 4.57613 40.3226 5.64516V43.5484H13.7097C13.4958 43.5484 13.2907 43.6334 13.1394 43.7846C12.9882 43.9358 12.9032 44.141 12.9032 44.3548ZM43.5484 45.9677C43.5484 46.6094 43.2935 47.2248 42.8398 47.6785C42.3861 48.1322 41.7707 48.3871 41.129 48.3871H13.7097C14.2342 47.6897 14.5173 46.8404 14.5161 45.9677V45.1613H43.5484V45.9677Z" fill="white"/>
<path id="Vector_2" d="M15.3226 20.9678H18.5484C18.7623 20.9678 18.9674 20.8828 19.1186 20.7316C19.2699 20.5803 19.3548 20.3752 19.3548 20.1613V18.5484H21.7742V29.8387H19.3548C19.141 29.8387 18.9358 29.9237 18.7846 30.075C18.6334 30.2262 18.5484 30.4313 18.5484 30.6452V33.871C18.5484 34.0849 18.6334 34.29 18.7846 34.4413C18.9358 34.5925 19.141 34.6775 19.3548 34.6775H29.0323C29.2461 34.6775 29.4513 34.5925 29.6025 34.4413C29.7537 34.29 29.8387 34.0849 29.8387 33.871V30.6452C29.8387 30.4313 29.7537 30.2262 29.6025 30.075C29.4513 29.9237 29.2461 29.8387 29.0323 29.8387H26.6129V18.5484H29.0323V20.1613C29.0323 20.3752 29.1172 20.5803 29.2685 20.7316C29.4197 20.8828 29.6248 20.9678 29.8387 20.9678H33.0645C33.2784 20.9678 33.4835 20.8828 33.6348 20.7316C33.786 20.5803 33.871 20.3752 33.871 20.1613V14.5162C33.871 14.3023 33.786 14.0972 33.6348 13.9459C33.4835 13.7947 33.2784 13.7097 33.0645 13.7097H15.3226C15.1087 13.7097 14.9036 13.7947 14.7523 13.9459C14.6011 14.0972 14.5161 14.3023 14.5161 14.5162V20.1613C14.5161 20.3752 14.6011 20.5803 14.7523 20.7316C14.9036 20.8828 15.1087 20.9678 15.3226 20.9678ZM16.129 15.3226H32.2581V19.3549H30.6452V17.742C30.6452 17.5281 30.5602 17.323 30.409 17.1717C30.2577 17.0205 30.0526 16.9355 29.8387 16.9355H25.8064C25.5926 16.9355 25.3874 17.0205 25.2362 17.1717C25.085 17.323 25 17.5281 25 17.742V30.6452C25 30.8591 25.085 31.0642 25.2362 31.2154C25.3874 31.3667 25.5926 31.4517 25.8064 31.4517H28.2258V33.0646H20.1613V31.4517H22.5806C22.7945 31.4517 22.9997 31.3667 23.1509 31.2154C23.3021 31.0642 23.3871 30.8591 23.3871 30.6452V17.742C23.3871 17.5281 23.3021 17.323 23.1509 17.1717C22.9997 17.0205 22.7945 16.9355 22.5806 16.9355H18.5484C18.3345 16.9355 18.1294 17.0205 17.9781 17.1717C17.8269 17.323 17.7419 17.5281 17.7419 17.742V19.3549H16.129V15.3226Z" fill="white"/>
</g>
</svg>
