<svg width="35" height="40" viewBox="0 0 35 40" fill="none" xmlns="http://www.w3.org/2000/svg">
<g id="Group 88">
<path id="Vector" d="M1.42822 21.4287H22.8568V32.8573H1.42822V21.4287Z" fill="#00B6FF"/>
<path id="Vector_2" d="M34.2857 10.5357C34.292 10.5027 34.292 10.4688 34.2857 10.4357C34.2509 10.3506 34.1999 10.273 34.1357 10.2072L24.1357 0.207171C24.0699 0.142921 23.9923 0.0919879 23.9071 0.0571714C23.8741 0.0508076 23.8402 0.0508076 23.8071 0.0571714C23.7345 0.0187863 23.6535 -0.000856023 23.5714 2.86112e-05H3.57143C3.38199 2.86112e-05 3.2003 0.0752836 3.06635 0.209238C2.9324 0.343192 2.85714 0.524874 2.85714 0.714314V20H0.714285C0.524845 20 0.343164 20.0753 0.209209 20.2092C0.075255 20.3432 0 20.5249 0 20.7143V33.5714C0 33.7609 0.075255 33.9426 0.209209 34.0765C0.343164 34.2105 0.524845 34.2857 0.714285 34.2857H2.85714V39.2857C2.85714 39.4752 2.9324 39.6568 3.06635 39.7908C3.2003 39.9247 3.38199 40 3.57143 40H33.5714C33.7608 40 33.9425 39.9247 34.0765 39.7908C34.2104 39.6568 34.2857 39.4752 34.2857 39.2857V10.7143C34.2966 10.6553 34.2966 10.5948 34.2857 10.5357ZM24.2857 2.43574L31.85 10H24.2857V2.43574ZM1.42857 21.4286H22.8571V32.8571H1.42857V21.4286ZM4.28571 38.5714V34.2857H23.5714C23.7608 34.2857 23.9425 34.2105 24.0765 34.0765C24.2104 33.9426 24.2857 33.7609 24.2857 33.5714V20.7143C24.2857 20.5249 24.2104 20.3432 24.0765 20.2092C23.9425 20.0753 23.7608 20 23.5714 20H4.28571V1.4286H22.8571V10.7143C22.8571 10.9037 22.9324 11.0854 23.0663 11.2194C23.2003 11.3533 23.382 11.4286 23.5714 11.4286H32.8571V38.5714H4.28571Z" fill="#016F9B"/>
<path id="Vector_3" d="M31.8499 9.99983H24.2856V2.43555L31.8499 9.99983Z" fill="white"/>
<path id="Vector_4" d="M32.857 11.4287V38.5715H4.28564V34.2858H23.5713C23.7608 34.2858 23.9425 34.2106 24.0764 34.0766C24.2104 33.9427 24.2856 33.761 24.2856 33.5715V20.7144C24.2856 20.525 24.2104 20.3433 24.0764 20.2093C23.9425 20.0754 23.7608 20.0001 23.5713 20.0001H4.28564V1.42871H22.8571V10.7144C22.8571 10.9039 22.9323 11.0855 23.0663 11.2195C23.2002 11.3534 23.3819 11.4287 23.5713 11.4287H32.857Z" fill="white"/>
<path id="Vector_5" d="M5 29.9999V24.2857H6.9C7.38781 24.2532 7.8706 24.4006 8.25714 24.6999C8.45224 24.8696 8.60679 25.0809 8.70939 25.3183C8.812 25.5556 8.86005 25.813 8.85 26.0714C8.84569 26.4053 8.74929 26.7316 8.57143 27.0142C8.40437 27.2928 8.15473 27.5125 7.85714 27.6428C7.59889 27.7578 7.31831 27.8139 7.03571 27.8071H6.17857V29.9999H5ZM6.20714 26.7714H6.87857C7.0901 26.7825 7.29764 26.7107 7.45714 26.5714C7.52778 26.5004 7.58272 26.4155 7.6184 26.322C7.65409 26.2284 7.66972 26.1285 7.66428 26.0285C7.66428 25.5904 7.40238 25.3714 6.87857 25.3714H6.20714V26.7714ZM9.96428 29.9999V24.2857H12.1071C12.6442 24.2667 13.1707 24.4388 13.5929 24.7714C13.9425 25.0558 14.2199 25.4189 14.4024 25.8311C14.5849 26.2432 14.6673 26.6927 14.6428 27.1428C14.649 27.6668 14.5264 28.1844 14.2857 28.6499C14.0605 29.0853 13.7129 29.4453 13.2857 29.6857C12.7921 29.9226 12.2466 30.0307 11.7 29.9999H9.96428ZM11.1714 28.9142H11.9429C12.2172 28.9242 12.4883 28.8521 12.7214 28.7071C12.9686 28.5215 13.164 28.2757 13.2891 27.9931C13.4141 27.7105 13.4646 27.4005 13.4357 27.0928C13.46 26.8036 13.4105 26.5129 13.2919 26.2481C13.1732 25.9832 12.9892 25.7528 12.7571 25.5785C12.5271 25.4324 12.258 25.3601 11.9857 25.3714H11.1714V28.9142ZM15.8857 29.9999V24.2857H19.1571V25.3714H17.0928V26.5357H18.9857V27.6214H17.0928V29.9999H15.8857Z" fill="#016F9B"/>
</g>
</svg>
