<svg width="55" height="54" viewBox="0 0 55 54" fill="none" xmlns="http://www.w3.org/2000/svg">
<path id="Vector" d="M45.9545 0.00400669H9.04551C7.83821 -0.0324814 6.63638 0.180573 5.51519 0.629842C4.39401 1.07911 3.3776 1.75492 2.52956 2.615C1.68153 3.47508 1.02011 4.50091 0.586694 5.62832C0.153277 6.75573 -0.0428138 7.96045 0.0106911 9.16711V32.9912C-0.0496649 34.2105 0.146027 35.4289 0.585163 36.5679C1.0243 37.707 1.69714 38.7414 2.56036 39.6046C3.42357 40.4678 4.45802 41.1407 5.59707 41.5798C6.73612 42.0189 7.95452 42.2146 9.17379 42.1543H36.9013L33.456 43.3088C33.1295 43.415 32.8393 43.6108 32.6187 43.8739C32.398 44.1369 32.2557 44.4567 32.2079 44.7967C32.1602 45.1368 32.2089 45.4834 32.3486 45.7971C32.4882 46.1108 32.7132 46.3789 32.9979 46.5709L42.4359 52.7652C42.7337 52.9634 43.0831 53.0702 43.4409 53.0722C43.7988 53.0743 44.1493 52.9715 44.4494 52.7767C44.7495 52.5818 44.986 52.3033 45.1297 51.9756C45.2734 51.6479 45.3181 51.2853 45.2581 50.9325L43.9936 42.1543H45.8262C47.0455 42.2146 48.2639 42.0189 49.4029 41.5798C50.542 41.1407 51.5764 40.4678 52.4396 39.6046C53.3029 38.7414 53.9757 37.707 54.4148 36.5679C54.854 35.4289 55.0497 34.2105 54.9893 32.9912V9.16711C55.0428 7.96045 54.8467 6.75573 54.4133 5.62832C53.9799 4.50091 53.3185 3.47508 52.4704 2.615C51.6224 1.75492 50.606 1.07911 49.4848 0.629842C48.3636 0.180573 47.1618 -0.0324814 45.9545 0.00400669ZM30.2489 29.3259H13.7553C13.0263 29.3259 12.3271 29.0363 11.8116 28.5208C11.296 28.0053 11.0064 27.3061 11.0064 26.577C11.0064 25.8479 11.296 25.1487 11.8116 24.6332C12.3271 24.1177 13.0263 23.8281 13.7553 23.8281H30.2489C30.978 23.8281 31.6772 24.1177 32.1927 24.6332C32.7082 25.1487 32.9979 25.8479 32.9979 26.577C32.9979 27.3061 32.7082 28.0053 32.1927 28.5208C31.6772 29.0363 30.978 29.3259 30.2489 29.3259ZM41.2447 18.3302H13.7553C13.0263 18.3302 12.3271 18.0406 11.8116 17.5251C11.296 17.0095 11.0064 16.3103 11.0064 15.5813C11.0064 14.8522 11.296 14.153 11.8116 13.6375C12.3271 13.122 13.0263 12.8324 13.7553 12.8324H41.2447C41.9737 12.8324 42.6729 13.122 43.1884 13.6375C43.704 14.153 43.9936 14.8522 43.9936 15.5813C43.9936 16.3103 43.704 17.0095 43.1884 17.5251C42.6729 18.0406 41.9737 18.3302 41.2447 18.3302Z" fill="white"/>
</svg>
